# xmcd
#
# Track frame offsets: 
#        150
#        19290
#        39037
#        56790
#        77310
#        94557
#        109887
#        129057
#        145027
#        160470
#        180312
#        199157
#
# Disc length: 2833 seconds
#
# Revision: 10
# Processed by: cddbd v1.5.2PL0 Copyright (c) Steve Scherf et al.
# Submitted via: ExactAudioCopy v0.99pb4
#
DISCID=8c0b0f0c
DTITLE=Celine Dion - D'eux
DYEAR=1995
DGENRE=Vocal
TTITLE0=Pour Que Tu M'aimes Encore
TTITLE1=Le Ballet
TTITLE2=Regarde_Moi
TTITLE3=Je Sais Pas
TTITLE4=La Mémoire D'Abraham
TTITLE5=Cherche Encore
TTITLE6=Destin
TTITLE7=Les Derniers Seront Les Premiers
TTITLE8=J'irai Où Tu Iras
TTITLE9=J'attendais
TTITLE10=Prière Païenne
TTITLE11=Vole
EXTD=CD US 1995 (550 Music/Epic BK 67107) UPC 0074646710722
EXTT0=
EXTT1=
EXTT2=
EXTT3=
EXTT4=
EXTT5=
EXTT6=
EXTT7=
EXTT8=
EXTT9=
EXTT10=
EXTT11=
PLAYORDER=
